Coordinates
version=1
nRows=19
nColumns=24
inDegrees=yes

Units are S.I. units (second, meters, Newtons, ...)
If the header above contains a line with 'inDegrees', this indicates whether rotational values are in degrees (yes) or radians (no).

endheader
time	pelvis_tilt	pelvis_list	pelvis_rotation	pelvis_tx	pelvis_ty	pelvis_tz	hip_flexion_r	hip_adduction_r	hip_rotation_r	knee_angle_r	ankle_angle_r	subtalar_angle_r	mtp_angle_r	hip_flexion_l	hip_adduction_l	hip_rotation_l	knee_angle_l	ankle_angle_l	subtalar_angle_l	mtp_angle_l	lumbar_extension	lumbar_bending	lumbar_rotation
      7.01000000	     -9.14499839	    -20.42602119	    -91.84637255	     -0.28520098	      0.97500593	      0.40313551	    -14.13673127	     12.04188827	     -8.68016687	     -9.38494299	      6.21797296	      5.42031929	      0.00000000	      7.88323387	    -19.83334683	     -7.40856818	    -71.12202783	     -6.66804944	    -12.18865925	      0.00000000	    -40.18259773	      9.08112608	      9.36769088
      7.02000000	     -9.03840918	    -20.33659432	    -91.72472982	     -0.28576836	      0.97614458	      0.41582394	    -15.39648711	     12.05807748	     -8.79914977	     -8.44350751	      6.35899987	      5.75424518	      0.00000000	      9.57423538	    -19.44319372	     -7.13124670	    -70.06812312	     -5.57617298	    -11.73998511	      0.00000000	    -40.08665414	      9.03764664	      9.61216646
      7.03000000	     -8.95892636	    -20.28189353	    -91.68670596	     -0.28630241	      0.97713719	      0.42848362	    -16.68732422	     12.06182612	     -8.96590100	     -7.52934093	      6.51127418	      6.26418416	      0.00000000	     11.00378687	    -19.05405354	     -7.03495109	    -68.62921880	     -4.28831314	    -11.07907700	      0.00000000	    -40.04569326	      8.98155624	      9.89942998
      7.04000000	     -8.84321159	    -20.28743614	    -91.70531192	     -0.28679867	      0.97803785	      0.44109974	    -18.02358612	     11.99815660	     -9.05577752	     -6.65962732	      6.66662436	      6.75299839	      0.00000000	     12.13774294	    -18.60113500	     -7.10518891	    -66.78853902	     -2.93003567	    -10.18825880	      0.00000000	    -40.09131577	      8.85967729	     10.19791758
      7.05000000	     -8.59961715	    -20.47455227	    -91.79944037	     -0.28724233	      0.97908988	      0.45378201	    -19.56095605	     11.74491702	     -9.13178597	     -5.80843736	      6.85177380	      7.40130312	      0.00000000	     12.75948465	    -17.98254252	     -7.41855272	    -64.46142335	     -1.67620021	     -9.27662811	      0.00000000	    -40.33450846	      8.55732165	     10.46011855
      7.06000000	     -8.48860478	    -20.55152135	    -91.92761220	     -0.28774841	      0.97964862	      0.46638138	    -20.93044866	     11.62464871	     -9.11887459	     -5.03987102	      7.03018494	      7.90611466	      0.00000000	     13.37935328	    -17.51727136	     -7.76834132	    -61.85972862	     -0.47224737	     -8.25259511	      0.00000000	    -40.49301432	      8.37100950	     10.76493145
      7.07000000	     -8.44126752	    -20.60815507	    -92.09296690	     -0.28825655	      0.97989801	      0.47898100	    -22.26836710	     11.54998661	     -9.07079121	     -4.29487630	      7.17723265	      8.39070180	      0.00000000	     13.84453974	    -17.11639305	     -8.19447949	    -58.93202367	      0.57543686	     -7.19877760	      0.00000000	    -40.65268779	      8.22904905	     11.10176797
      7.08000000	     -8.39851736	    -20.70931945	    -92.27001876	     -0.28877503	      0.97990164	      0.49170211	    -23.66965958	     11.46753124	     -8.96126174	     -3.54356689	      7.39882181	      8.86032407	      0.00000000	     14.04682629	    -16.72003904	     -8.73175581	    -55.64994982	      1.52227620	     -6.15796637	      0.00000000	    -40.85202624	      8.07182912	     11.36071203
      7.09000000	     -8.39429174	    -20.81384551	    -92.47387460	     -0.28928048	      0.97962420	      0.50450512	    -25.08095395	     11.40284084	     -8.81551672	     -2.79639868	      7.60041197	      9.30470931	      0.00000000	     14.03629138	    -16.35841054	     -9.36564862	    -52.02832270	      2.38486755	     -5.02159788	      0.00000000	    -41.06286768	      7.93678103	     11.64145500
      7.10000000	     -8.37393973	    -20.97646045	    -92.69372696	     -0.28974955	      0.97916320	      0.51745562	    -26.56496827	     11.29465795	     -8.64172529	     -2.05500538	      7.82576449	      9.74111344	      0.00000000	     13.71233834	    -15.96202028	    -10.12474986	    -48.02832064	      3.24579020	     -3.72177324	      0.00000000	    -41.32706621	      7.76781627	     11.89240292
      7.11000000	     -8.31068006	    -21.22121806	    -92.92162410	     -0.29015622	      0.97857575	      0.53060391	    -28.14791267	     11.11216784	     -8.45082985	     -1.32065773	      8.07274385	     10.17627169	      0.00000000	     13.02682244	    -15.48891818	    -11.01862993	    -43.62722928	      4.12775754	     -2.19074469	      0.00000000	    -41.65980176	      7.54252183	     12.09297136
      7.12000000	     -8.17265832	    -21.58128846	    -93.11812109	     -0.29044067	      0.97789478	      0.54405028	    -29.87522977	     10.83601990	     -8.30374344	     -0.57636723	      8.34718836	     10.64335738	      0.00000000	     11.94293965	    -14.87954327	    -12.00770075	    -38.82118935	      4.99780730	     -0.43649181	      0.00000000	    -42.07517116	      7.24897068	     12.19358998
      7.13000000	     -7.94874486	    -22.07530253	    -93.24479010	     -0.29053094	      0.97711581	      0.55788017	    -31.77831184	     10.47294523	     -8.24292522	      0.19776062	      8.64209082	     11.17835011	      0.00000000	     10.46425083	    -14.09414054	    -13.01428214	    -33.63960103	      5.77774740	      1.43218537	      0.00000000	    -42.57703088	      6.90261801	     12.14947247
      7.14000000	     -7.70290813	    -22.65146928	    -93.41251525	     -0.29057272	      0.97621755	      0.57199773	    -33.74826299	     10.03807254	     -8.19650499	      0.89540102	      8.97258049	     11.72901888	      0.00000000	      8.64763606	    -13.21534986	    -14.10945193	    -28.12775932	      6.32149001	      3.24007954	      0.00000000	    -43.14225926	      6.49986544	     12.11403908
      7.15000000	     -7.43276229	    -23.37945687	    -93.59731230	     -0.29050656	      0.97524290	      0.58643219	    -35.90105243	      9.53938847	     -8.19019893	      1.59826244	      9.25353538	     12.31137155	      0.00000000	      6.46736999	    -12.21291311	    -15.19970722	    -22.37715500	      6.65333568	      4.78500482	      0.00000000	    -43.83151151	      6.05163563	     12.02689137
      7.16000000	     -7.28925167	    -24.21766406	    -93.96629625	     -0.29052932	      0.97420613	      0.60084293	    -38.11301295	      9.03480535	     -8.03597131	      2.16481214	      9.53398181	     12.80332410	      0.00000000	      4.00880088	    -11.27198526	    -16.43358733	    -16.52052924	      6.69288565	      6.09174906	      0.00000000	    -44.66911280	      5.60285707	     12.06618174
      7.17000000	     -7.57085551	    -25.14825053	    -94.86221175	     -0.29089157	      0.97321821	      0.61473522	    -40.28424644	      8.58559398	     -7.37434337	      2.43757329	      9.82138817	     13.21555946	      0.00000000	      1.30492825	    -10.67023436	    -17.92462766	    -10.75131267	      6.46546548	      6.93448136	      0.00000000	    -45.74450301	      5.23823382	     12.57699520
      7.18000000	     -8.42576425	    -26.07943439	    -96.33517529	     -0.29159558	      0.97225457	      0.62769752	    -42.25116624	      8.27740377	     -6.21049624	      2.31030986	     10.09830768	     13.49415136	      0.00000000	     -1.41965591	    -10.54095895	    -19.43708606	     -5.40850709	      6.03536753	      7.12915880	      0.00000000	    -47.03684030	      5.04695652	     13.66870000
      7.19000000	     -9.90784645	    -26.88777626	    -98.36935252	     -0.29265843	      0.97132530	      0.63966434	    -43.88432696	      8.15678072	     -4.52864393	      1.73229656	     10.35027935	     13.66610693	      0.00000000	     -3.95249303	    -10.99195685	    -20.87330729	     -0.82352516	      5.50114817	      6.70182725	      0.00000000	    -48.46372912	      5.05398424	     15.31903279
